<?xml version="1.0" standalone="no"?>
<!DOCTYPE svg PUBLIC "-//W3C//DTD SVG 20010904//EN"
 "http://www.w3.org/TR/2001/REC-SVG-20010904/DTD/svg10.dtd">
<svg version="1.0" xmlns="http://www.w3.org/2000/svg"
 width="476.000000pt" height="448.000000pt" viewBox="0 0 476.000000 448.000000"
 preserveAspectRatio="xMidYMid meet">

<g transform="translate(0.000000,448.000000) scale(0.100000,-0.100000)"
fill="#000000" stroke="none">
<path d="M2110 3654 c-112 -30 -217 -127 -259 -239 -13 -34 -24 -95 -28 -162
l-8 -108 -287 -5 -288 -5 -31 -32 c-63 -63 -46 -169 34 -206 32 -16 135 -17
1237 -17 1083 0 1205 2 1236 16 83 39 99 148 30 211 l-36 33 -285 0 -285 0 0
68 c0 92 -17 186 -42 236 -52 104 -147 183 -253 211 -84 21 -653 21 -735 -1z
m685 -258 c93 -39 101 -185 12 -233 -29 -16 -64 -18 -332 -18 -278 0 -302 1
-328 19 -82 55 -72 193 16 231 47 21 583 21 632 1z"/>
<path d="M1432 1853 c3 -732 4 -770 22 -813 47 -109 128 -189 233 -232 l58
-23 690 -3 c453 -2 713 1 758 8 117 18 213 80 276 178 62 97 61 92 59 907 l-3
740 -127 3 -128 3 -1 -728 c0 -537 -3 -737 -12 -763 -7 -19 -27 -44 -46 -57
l-34 -23 -694 0 c-756 0 -729 -2 -769 57 -18 27 -19 60 -22 771 l-2 742 -131
0 -130 0 3 -767z"/>
<path d="M2154 2471 c-67 -41 -64 -21 -64 -501 0 -328 3 -441 13 -460 18 -36
74 -70 116 -70 20 0 51 9 69 20 61 37 62 45 62 507 0 386 -1 421 -18 452 -35
65 -118 89 -178 52z"/>
<path d="M2681 2472 c-71 -38 -71 -37 -71 -507 0 -388 1 -423 18 -454 46 -85
160 -93 221 -15 21 26 21 36 21 466 0 434 0 440 -21 470 -23 32 -73 58 -111
58 -13 0 -39 -8 -57 -18z"/>
</g>
</svg>
